<?xml version="1.0" encoding="UTF-8"?>
<svg id="Layer_1" data-name="Layer 1" xmlns="http://www.w3.org/2000/svg" viewBox="0 0 96.86 96.86">
  <defs>
    <style>
      .cls-1 {
        fill: #03887f;
      }

      .cls-2 {
        fill: #7e52a1;
        isolation: isolate;
        opacity: .4;
      }
    </style>
  </defs>
  <path class="cls-2" d="M6.92,13.84v69.18c0,3.83,3.09,6.92,6.92,6.92h69.18c3.83,0,6.92-3.09,6.92-6.92V13.84c0-3.83-3.09-6.92-6.92-6.92H13.84c-3.83,0-6.92,3.09-6.92,6.92ZM13.84,29.4c0-8.6,6.96-15.57,15.57-15.57s15.57,6.96,15.57,15.57c0,2.53-.61,4.91-1.66,7.03l5.12,4.11,5.12-4.11c-1.08-2.12-1.66-4.5-1.66-7.03,0-8.6,6.96-15.57,15.57-15.57s15.57,6.96,15.57,15.57-6.96,15.57-15.57,15.57c-3.57,0-6.85-1.19-9.47-3.22l-6.1,4.86v5.64c6.94,1.58,12.11,7.76,12.11,15.18,0,8.6-6.96,15.57-15.57,15.57s-15.57-6.96-15.57-15.57c0-7.42,5.17-13.6,12.11-15.18v-5.64l-6.1-4.86c-2.62,2.01-5.9,3.22-9.47,3.22-8.6,0-15.57-6.96-15.57-15.57Z"/>
  <path class="cls-1" d="M83.02,6.92c3.83,0,6.92,3.09,6.92,6.92v69.18c0,3.83-3.09,6.92-6.92,6.92H13.84c-3.83,0-6.92-3.09-6.92-6.92V13.84c0-3.83,3.09-6.92,6.92-6.92h69.18ZM13.84,0C6.2,0,0,6.2,0,13.84v69.18c0,7.63,6.2,13.84,13.84,13.84h69.18c7.63,0,13.84-6.2,13.84-13.84V13.84c0-7.63-6.2-13.84-13.84-13.84H13.84ZM67.45,20.76c4.78,0,8.65,3.87,8.65,8.65s-3.87,8.65-8.65,8.65c-1.34,0-2.64-.3-3.76-.86l4.19-3.35c1.49-1.19,1.73-3.37.54-4.86s-3.37-1.73-4.86-.54l-4.39,3.5c-.24-.8-.37-1.64-.37-2.53,0-4.78,3.87-8.65,8.65-8.65ZM57.99,41.75c2.62,2.01,5.9,3.22,9.47,3.22,8.6,0,15.57-6.96,15.57-15.57s-6.96-15.57-15.57-15.57-15.57,6.96-15.57,15.57c0,2.53.61,4.91,1.66,7.03l-5.12,4.11-5.12-4.11c1.08-2.12,1.66-4.5,1.66-7.03,0-8.6-6.96-15.57-15.57-15.57s-15.57,6.96-15.57,15.57,6.96,15.57,15.57,15.57c3.57,0,6.85-1.19,9.47-3.22l6.1,4.86v5.64c-6.94,1.58-12.11,7.76-12.11,15.18,0,8.6,6.96,15.57,15.57,15.57s15.57-6.96,15.57-15.57c0-7.42-5.17-13.6-12.11-15.18v-5.64l6.1-4.86ZM44.97,59.52v6.2c0,1.9,1.56,3.46,3.46,3.46s3.46-1.56,3.46-3.46v-6.2c3.05,1.34,5.19,4.39,5.19,7.93,0,4.78-3.87,8.65-8.65,8.65s-8.65-3.87-8.65-8.65c0-3.55,2.14-6.59,5.19-7.93ZM33.17,37.19c-1.15.54-2.42.86-3.76.86-4.78,0-8.65-3.87-8.65-8.65s3.87-8.65,8.65-8.65,8.65,3.87,8.65,8.65c0,.89-.13,1.73-.37,2.53l-4.39-3.5c-1.49-1.19-3.68-.95-4.86.54s-.95,3.68.54,4.86l4.19,3.35Z"/>
</svg>